<svg xmlns="http://www.w3.org/2000/svg" viewBox="0 0 575.63 128"><defs><style>.cls-1{fill:#ffcb51;}.cls-2{fill:#161616;}.cls-3{fill:none;stroke:#161616;stroke-miterlimit:10;stroke-width:2.53px;}</style></defs><g id="Layer_2" data-name="Layer 2"><g id="Layer_2-2" data-name="Layer 2"><g id="Layer_1-2" data-name="Layer 1-2"><path class="cls-1" d="M49.41,112.79A44.6,44.6,0,0,0,13.22,76.61h0A16,16,0,0,1,2.5,69.41a15.58,15.58,0,0,1,0-16.92A15.89,15.89,0,0,1,13.22,45.3h0A37.14,37.14,0,0,0,43.34,15.17h0A16,16,0,0,1,50,4.81,15.91,15.91,0,1,1,61.76,33.59h0a37.13,37.13,0,0,0-17.53,8.22,10.68,10.68,0,0,0,4,18.36,64.5,64.5,0,0,0,51.62-6.75,15.9,15.9,0,1,1,11,29.25h0a37.11,37.11,0,0,0-30.12,30.11h0a16,16,0,0,1-7.19,10.72,15.54,15.54,0,0,1-16.92,0,15.92,15.92,0,0,1-7.19-10.72h0ZM70.08,92.1a37.14,37.14,0,0,0,13.24-9.31A8.47,8.47,0,0,0,80,69.16a64.53,64.53,0,0,0-32.83-3.11,8.52,8.52,0,0,0-4.88,14.08A44.64,44.64,0,0,0,60,92.24a13.78,13.78,0,0,0,10.07-.14Z"/></g><path class="cls-2" d="M286.74,60.85q-6.5-4.29-22.6-8a101.9,101.9,0,0,1-17.3-5.33,9.67,9.67,0,0,1-6.28-9.55q0-5.2,5-8.42t14-3.22q8.7,0,13.69,3.77t5,16.44h15q0-15.06-7.26-22.78T259.61,16q-18.81,0-26.16,6.92a22.08,22.08,0,0,0-7.35,16.66q0,10.48,6.56,15.1T254.89,63a100.63,100.63,0,0,1,17.39,5.2,9.63,9.63,0,0,1,6.19,9.56,9.89,9.89,0,0,1-4.93,8.79q-4.94,3.15-13.81,3.15t-13.87-3.83Q241,82,241,69H226q0,15.93,7.14,23.43t26.67,7.5q19,0,26.18-7a23.17,23.17,0,0,0,7.2-17.21Q293.23,65.13,286.74,60.85Z"/><path class="cls-2" d="M332.61,10.38H317.79V26.85H300.88V37.14h16.91V83q0,9.86,5.79,13.56t14.3,3.71A58.05,58.05,0,0,0,351.6,98.7V88.77a26.85,26.85,0,0,1-8.76,1.47q-4.84,0-7.54-2.08t-2.69-8.51V37.14h23.52V26.85H332.61Z"/><path class="cls-2" d="M396.49,26.06q-17.34,0-25.36,9.12t-8,27.75q0,18.56,8,27.8T396.49,100q17.38,0,25.38-9.25t8-27.8q0-18.61-8-27.75T396.49,26.06Zm13.35,58.21a18.82,18.82,0,0,1-26.67,0q-5.24-5.53-5.24-21.28t5.24-21.28a18.94,18.94,0,0,1,26.67,0Q415,47.19,415.05,63T409.84,84.27Z"/><path class="cls-2" d="M477.58,26.18q-12.37,0-19.82,6.71A24.65,24.65,0,0,0,455,35.83l-2.15-9H441.32V99.43h14.76V51.53a17.15,17.15,0,0,1,4.26-10q4.31-5.05,11.78-5a11.32,11.32,0,0,1,10,5q3.42,5.06,3.43,19.63h14.82q0-18.18-4.9-26.61T477.58,26.18Z"/><path class="cls-2" d="M575.63,62.87q0-17.9-7.41-27.38t-25.48-9.37q-17.46,0-25.23,9.37T509.67,63q0,17.33,7.71,27.19T543,100q9.74,0,15.8-2.32a22.72,22.72,0,0,0,10.1-7.29A25.24,25.24,0,0,0,574,78.12l-13.29-3.68a36.81,36.81,0,0,1-3.13,8.82,11.79,11.79,0,0,1-5.76,5.51,22.21,22.21,0,0,1-8.81,1.6q-8.9,0-13.91-6.25-4.29-5.18-5-16.66h51.19A30.87,30.87,0,0,0,575.63,62.87Zm-51.5-4.47q.68-11.92,5.08-16.79A17.38,17.38,0,0,1,542.8,35.8q8.58,0,13.35,5.45,4,4.95,4.54,17.15Z"/><line class="cls-3" x1="171.69" x2="171.69" y2="128"/></g></g></svg>